# xmcd CD database file generated by Grip 3.2.0
# 
# Track frame offsets:
#       182
#       11887
#       26625
#       39525
#       60900
#       84150
#       97100
#       115675
#       131400
#       148825
#       166200
#       179475
#       196725
#       208500
#       223800
#       240675
#       255425
#       272100
#       289425
#       302450
#       316200
# 
# Disc length: 4427 seconds
# 
# Revision: 7
# Processed by: cddbd v1.5.2PL0 Copyright (c) Steve Scherf et al.
# Submitted via: Grip 3.2.0
# 
DISCID=2b114915
DTITLE=Bobby Womack - Womack Winners - Best Of 1968-1975
DYEAR=1989
DGENRE=Soul
TTITLE0=Who Is This?
TTITLE1=How I Miss You Baby
TTITLE2=More Than I Can Stand
TTITLE3=Communication
TTITLE4=That's The Way I Feel About Cha
TTITLE5=If You Don't Want My Love, Give It Back
TTITLE6=I Can Understand It
TTITLE7=Woman's Gotta Have It
TTITLE8=Harry Hippie
TTITLE9=Across 110th Street
TTITLE10=Nobody Wants You When You're Down And Out
TTITLE11=I'm Through Trying To Prove My Love To You
TTITLE12=Lookin' For A Love
TTITLE13=I Don't Wanna Be Hurt By Ya Love Again
TTITLE14=You're Welcome, Stop On By
TTITLE15=I Don't Know (What The World Is Coming To)
TTITLE16=If You Want My Love, Put Something Down On It
TTITLE17=Check It Out
TTITLE18=It's All Over Now
TTITLE19=Where There's A Will, There's A Way
TTITLE20=Daylight
EXTD=YEAR: 1989
EXTT0=
EXTT1=
EXTT2=
EXTT3=
EXTT4=
EXTT5=
EXTT6=
EXTT7=
EXTT8=
EXTT9=
EXTT10=
EXTT11=
EXTT12=
EXTT13=
EXTT14=
EXTT15=
EXTT16=
EXTT17=
EXTT18=
EXTT19=
EXTT20=
PLAYORDER=
